<mxfile host="localhost" modified="2020-05-23T10:03:06.029Z" agent="5.0 (Windows NT 10.0; Win64; x64) AppleWebKit/537.36 (KHTML, like Gecko) Code/1.45.1 Chrome/78.0.3904.130 Electron/7.2.4 Safari/537.36" etag="pHRSdBnt5-XWD_gsNgWm" version="13.0.9">
    <diagram id="4wcfLFbnwtr7vQqDEq93" name="第 1 页">
        <mxGraphModel dx="983" dy="659" grid="1" gridSize="10" guides="1" tooltips="1" connect="1" arrows="1" fold="1" page="1" pageScale="1" pageWidth="827" pageHeight="1169" math="0" shadow="0">
            <root>
                <mxCell id="0"/>
                <mxCell id="1" parent="0"/>
                <mxCell id="2" value="&lt;div style=&quot;font-size: 16px&quot;&gt;&lt;span style=&quot;font-size: 16px&quot;&gt;&lt;b&gt;&lt;font color=&quot;#000000&quot;&gt;DRA Architecture&lt;/font&gt;&lt;/b&gt;&lt;/span&gt;&lt;/div&gt;" style="rounded=0;whiteSpace=wrap;html=1;align=left;fillColor=#CCCCCC;strokeColor=#996185;gradientColor=none;horizontal=1;verticalAlign=top;fontSize=16;" parent="1" vertex="1">
                    <mxGeometry x="9" y="40" width="810" height="450" as="geometry"/>
                </mxCell>
                <mxCell id="3" value="SelectReactor" style="whiteSpace=wrap;html=1;fillColor=#B3B3B3;strokeColor=#666666;gradientColor=none;horizontal=0;fontSize=26;fontColor=#FFFFFF;fontStyle=0" parent="1" vertex="1">
                    <mxGeometry x="27" y="80" width="62" height="390" as="geometry"/>
                </mxCell>
                <mxCell id="5" value="CommunicationLayer" style="whiteSpace=wrap;html=1;fillColor=#B3B3B3;gradientColor=none;fontSize=16;align=left;strokeColor=#666666;verticalAlign=top;fontColor=#000000;fontStyle=1" parent="1" vertex="1">
                    <mxGeometry x="109" y="81" width="522" height="130" as="geometry"/>
                </mxCell>
                <mxCell id="6" value="ScheduleLayer" style="whiteSpace=wrap;html=1;fillColor=#B3B3B3;gradientColor=none;fontSize=16;align=left;strokeColor=#666666;verticalAlign=top;fontColor=#000000;fontStyle=1" parent="1" vertex="1">
                    <mxGeometry x="109" y="229" width="522" height="140" as="geometry"/>
                </mxCell>
                <mxCell id="7" value="BusinessLayer" style="whiteSpace=wrap;html=1;fillColor=#B3B3B3;gradientColor=none;fontSize=16;align=left;strokeColor=#666666;fontStyle=1;verticalAlign=top;fontColor=#000000;" parent="1" vertex="1">
                    <mxGeometry x="109" y="388" width="522" height="83" as="geometry"/>
                </mxCell>
                <mxCell id="8" value="DataProcessor" style="whiteSpace=wrap;html=1;fillColor=#B3B3B3;gradientColor=none;fontSize=16;align=left;strokeColor=#666666;verticalAlign=top;fontColor=#000000;fontStyle=1" parent="1" vertex="1">
                    <mxGeometry x="649" y="81" width="150" height="390" as="geometry"/>
                </mxCell>
                <mxCell id="12" value="sDRA" style="rounded=1;whiteSpace=wrap;html=1;strokeColor=#666666;fillColor=#009900;gradientColor=none;fontSize=14;fontColor=#FFFFFF;align=center;labelBackgroundColor=none;" parent="1" vertex="1">
                    <mxGeometry x="119" y="417" width="60" height="40" as="geometry"/>
                </mxCell>
                <mxCell id="13" value="tDRA" style="rounded=1;whiteSpace=wrap;html=1;strokeColor=#666666;fillColor=#009900;gradientColor=none;fontSize=14;fontColor=#FFFFFF;align=center;labelBackgroundColor=none;" parent="1" vertex="1">
                    <mxGeometry x="192" y="417" width="60" height="40" as="geometry"/>
                </mxCell>
                <mxCell id="14" value="WA" style="rounded=1;whiteSpace=wrap;html=1;strokeColor=#666666;fillColor=#009900;gradientColor=none;fontSize=14;fontColor=#FFFFFF;align=center;labelBackgroundColor=none;" parent="1" vertex="1">
                    <mxGeometry x="264" y="417" width="60" height="40" as="geometry"/>
                </mxCell>
                <mxCell id="15" value="RA" style="rounded=1;whiteSpace=wrap;html=1;strokeColor=#666666;fillColor=#009900;gradientColor=none;fontSize=14;fontColor=#FFFFFF;align=center;labelBackgroundColor=none;" parent="1" vertex="1">
                    <mxGeometry x="338" y="417" width="60" height="40" as="geometry"/>
                </mxCell>
                <mxCell id="17" value="Protocol" style="rounded=1;whiteSpace=wrap;html=1;labelBackgroundColor=none;strokeColor=#666666;fillColor=#7EA6E0;gradientColor=none;fontSize=14;align=center;" parent="1" vertex="1">
                    <mxGeometry x="382" y="111" width="129" height="40" as="geometry"/>
                </mxCell>
                <mxCell id="18" value="EventHandler" style="rounded=1;whiteSpace=wrap;html=1;labelBackgroundColor=none;strokeColor=#666666;fillColor=#7EA6E0;gradientColor=none;fontSize=14;fontColor=#FFFFFF;align=center;" parent="1" vertex="1">
                    <mxGeometry x="119" y="111" width="252" height="40" as="geometry"/>
                </mxCell>
                <mxCell id="20" value="TcpSocket" style="rounded=1;whiteSpace=wrap;html=1;labelBackgroundColor=none;strokeColor=#666666;fillColor=#7EA6E0;gradientColor=none;fontSize=14;fontColor=#FFFFFF;align=center;" parent="1" vertex="1">
                    <mxGeometry x="119" y="161" width="72" height="40" as="geometry"/>
                </mxCell>
                <mxCell id="21" value="S3Handler" style="rounded=1;whiteSpace=wrap;html=1;labelBackgroundColor=none;strokeColor=#666666;fillColor=#7EA6E0;gradientColor=none;fontSize=14;fontColor=#FFFFFF;align=center;" parent="1" vertex="1">
                    <mxGeometry x="201" y="161" width="69" height="40" as="geometry"/>
                </mxCell>
                <mxCell id="23" value="NalDPPCommand" style="rounded=1;whiteSpace=wrap;html=1;labelBackgroundColor=none;strokeColor=#666666;fillColor=#7EA6E0;gradientColor=none;fontSize=14;align=center;" parent="1" vertex="1">
                    <mxGeometry x="382" y="160" width="129" height="40" as="geometry"/>
                </mxCell>
                <mxCell id="24" value="MgmtServer" style="rounded=1;whiteSpace=wrap;html=1;labelBackgroundColor=none;strokeColor=#666666;fillColor=#7EA6E0;gradientColor=none;fontSize=14;align=center;" parent="1" vertex="1">
                    <mxGeometry x="521" y="111" width="100" height="40" as="geometry"/>
                </mxCell>
                <mxCell id="25" value="SessionConfig" style="rounded=1;whiteSpace=wrap;html=1;labelBackgroundColor=none;strokeColor=#666666;fillColor=#7EA6E0;gradientColor=none;fontSize=14;align=center;" parent="1" vertex="1">
                    <mxGeometry x="521" y="160" width="100" height="40" as="geometry"/>
                </mxCell>
                <mxCell id="26" value="DPPAgent&lt;br style=&quot;font-size: 14px;&quot;&gt;" style="rounded=1;whiteSpace=wrap;html=1;labelBackgroundColor=none;strokeColor=#666666;fillColor=#004C99;gradientColor=none;fontSize=14;fontColor=#FFFFFF;align=center;" parent="1" vertex="1">
                    <mxGeometry x="121" y="309" width="500" height="50" as="geometry"/>
                </mxCell>
                <mxCell id="27" value="SessionMgr" style="rounded=1;whiteSpace=wrap;html=1;labelBackgroundColor=none;strokeColor=#666666;fillColor=#004C99;gradientColor=none;fontSize=14;fontColor=#FFFFFF;align=center;" parent="1" vertex="1">
                    <mxGeometry x="122" y="259" width="79" height="40" as="geometry"/>
                </mxCell>
                <mxCell id="29" value="TaskPool" style="rounded=1;whiteSpace=wrap;html=1;labelBackgroundColor=none;strokeColor=#666666;fillColor=#004C99;gradientColor=none;fontSize=14;fontColor=#FFFFFF;align=center;" parent="1" vertex="1">
                    <mxGeometry x="209" y="259" width="61" height="40" as="geometry"/>
                </mxCell>
                <mxCell id="30" value="Connector" style="rounded=1;whiteSpace=wrap;html=1;labelBackgroundColor=none;strokeColor=#666666;fillColor=#004C99;gradientColor=none;fontSize=14;fontColor=#FFFFFF;align=center;" parent="1" vertex="1">
                    <mxGeometry x="281" y="259" width="69" height="40" as="geometry"/>
                </mxCell>
                <mxCell id="32" value="DirectHandler" style="rounded=1;whiteSpace=wrap;html=1;labelBackgroundColor=none;strokeColor=#666666;fillColor=#004C99;gradientColor=none;fontSize=14;fontColor=#FFFFFF;align=center;" parent="1" vertex="1">
                    <mxGeometry x="361" y="259.5" width="91" height="40" as="geometry"/>
                </mxCell>
                <mxCell id="33" value="Neighbor" style="rounded=1;whiteSpace=wrap;html=1;labelBackgroundColor=none;strokeColor=#666666;fillColor=#004C99;gradientColor=none;fontSize=14;fontColor=#FFFFFF;align=center;" parent="1" vertex="1">
                    <mxGeometry x="461" y="259" width="70" height="40" as="geometry"/>
                </mxCell>
                <mxCell id="36" value="Connections" style="rounded=1;whiteSpace=wrap;html=1;labelBackgroundColor=none;strokeColor=#666666;fillColor=#004C99;gradientColor=none;fontSize=14;fontColor=#FFFFFF;align=center;" parent="1" vertex="1">
                    <mxGeometry x="541" y="259" width="80" height="40" as="geometry"/>
                </mxCell>
                <mxCell id="38" value="cDRA" style="rounded=1;whiteSpace=wrap;html=1;strokeColor=#666666;fillColor=#009900;gradientColor=none;fontSize=14;fontColor=#FFFFFF;align=center;labelBackgroundColor=none;" parent="1" vertex="1">
                    <mxGeometry x="409" y="417" width="60" height="40" as="geometry"/>
                </mxCell>
                <mxCell id="39" value="Dataset" style="rounded=1;whiteSpace=wrap;html=1;labelBackgroundColor=none;strokeColor=#666666;fillColor=#FF3333;gradientColor=none;fontSize=14;fontColor=#FFFFFF;align=center;" parent="1" vertex="1">
                    <mxGeometry x="663" y="116" width="116" height="35" as="geometry"/>
                </mxCell>
                <mxCell id="40" value="Coalescer" style="rounded=1;whiteSpace=wrap;html=1;labelBackgroundColor=none;strokeColor=#666666;fillColor=#FF3333;gradientColor=none;fontSize=14;fontColor=#FFFFFF;align=center;" parent="1" vertex="1">
                    <mxGeometry x="663" y="165" width="116" height="35" as="geometry"/>
                </mxCell>
                <mxCell id="41" value="Compressor" style="rounded=1;whiteSpace=wrap;html=1;labelBackgroundColor=none;strokeColor=#666666;fillColor=#FF3333;gradientColor=none;fontSize=14;fontColor=#FFFFFF;align=center;" parent="1" vertex="1">
                    <mxGeometry x="663" y="212" width="116" height="35" as="geometry"/>
                </mxCell>
                <mxCell id="44" value="DeCompressor" style="rounded=1;whiteSpace=wrap;html=1;labelBackgroundColor=none;strokeColor=#666666;fillColor=#FF3333;gradientColor=none;fontSize=14;fontColor=#FFFFFF;align=center;" parent="1" vertex="1">
                    <mxGeometry x="665" y="259.5" width="114" height="35" as="geometry"/>
                </mxCell>
                <mxCell id="45" value="Pipe" style="rounded=1;whiteSpace=wrap;html=1;labelBackgroundColor=none;strokeColor=#666666;fillColor=#FF3333;gradientColor=none;fontSize=14;fontColor=#FFFFFF;align=center;" parent="1" vertex="1">
                    <mxGeometry x="665" y="307" width="114" height="35" as="geometry"/>
                </mxCell>
                <mxCell id="46" value="CreditXmitQueue" style="rounded=1;whiteSpace=wrap;html=1;labelBackgroundColor=none;strokeColor=#666666;fillColor=#FF3333;gradientColor=none;fontSize=14;fontColor=#FFFFFF;align=center;" parent="1" vertex="1">
                    <mxGeometry x="665" y="354" width="114" height="35" as="geometry"/>
                </mxCell>
                <mxCell id="47" value="DataContainer" style="rounded=1;whiteSpace=wrap;html=1;labelBackgroundColor=none;strokeColor=#666666;fillColor=#FF3333;gradientColor=none;fontSize=14;fontColor=#FFFFFF;align=center;" parent="1" vertex="1">
                    <mxGeometry x="665" y="401" width="114" height="35" as="geometry"/>
                </mxCell>
                <mxCell id="49" value="LocalHandler" style="rounded=1;whiteSpace=wrap;html=1;labelBackgroundColor=none;strokeColor=#666666;fillColor=#7EA6E0;gradientColor=none;fontSize=14;fontColor=#FFFFFF;align=center;" vertex="1" parent="1">
                    <mxGeometry x="281" y="161" width="90" height="40" as="geometry"/>
                </mxCell>
            </root>
        </mxGraphModel>
    </diagram>
</mxfile>
